<svg xmlns="http://www.w3.org/2000/svg" width="100%" height="100%" x="0" y="0" enable-background="new 0 0 780 650" version="1.1" viewBox="0 0 57.818 67.4" xml:space="preserve"><g><g fill="#00d400"><path d="M22.069,119.75c-12.198,0-22.069,10.03-22.069,22.41v87.588c0,12.375,9.8711,22.423,22.069,22.423s22.069-10.048,22.069-22.423v-87.588c0-12.383-9.8791-22.415-22.069-22.415z" transform="translate(-184.52,-76.084006) matrix(0.18361,0,0,0.18361,184.52,76.084)"/><path d="m60.189,121.05v158.51c0,9.4216,7.6481,17.054,17.054,17.054h19.469v48.272c0,12.255,9.7988,22.198,21.869,22.198s21.869-9.9353,21.869-22.198v-48.272h34.027v48.272c0,12.255,9.7667,22.198,21.869,22.198,12.07,0,21.853-9.9353,21.853-22.198v-48.272h19.485c9.4056,0,17.038-7.64,17.038-17.054v-158.51h-194.53z" transform="translate(-184.52,-76.084006) matrix(0.18361,0,0,0.18361,184.52,76.084)"/><path d="m292.84,119.72c-12.182,0-22.085,10.048-22.085,22.431v87.62c0,12.383,9.9032,22.431,22.085,22.431,12.198,0,22.053-10.048,22.053-22.431v-87.628c0-12.383-9.855-22.423-22.053-22.423z" transform="translate(-184.52,-76.084006) matrix(0.18361,0,0,0.18361,184.52,76.084)"/><path d="m208.46,39.703,18.482-27.157c2.4958-3.6595,1.5489-8.6592-2.1187-11.155-3.6675-2.4959-8.6673-1.5408-11.147,2.1267l-20.15,29.613c-11.179-3.8682-23.305-6.0912-36.082-6.0912-12.76,0-24.894,2.215-36.065,6.0831l-20.16-29.613c-2.508-3.6599-7.491-4.6069-11.159-2.119-3.667,2.4878-4.606,7.4955-2.118,11.155l18.498,27.157c-25.881,13.812-43.857,37.655-46.257,65.377h194.52c-2.3835-27.727-20.344-51.57-46.225-65.374zm-92.034,38.473c-5.9387,0-10.77-4.8232-10.77-10.762,0-5.9387,4.8152-10.762,10.77-10.762,5.9387,0,10.754,4.8232,10.754,10.762,0,5.9387-4.8152,10.762-10.754,10.762zm83.398,0c-5.9547,0-10.754-4.8232-10.754-10.762,0-5.9387,4.7991-10.762,10.754-10.762,5.9387,0,10.77,4.8232,10.77,10.762,0,5.9387-4.8312,10.762-10.77,10.762z" transform="translate(-184.52,-76.084006) matrix(0.18361,0,0,0.18361,184.52,76.084)"/></g><path d="m198.14,88.551,8.3594-4.9062,7,4,7-4,8,5-8,4-7-4-7,4z" transform="translate(-184.52,-76.084006)"/><path fill="#FFF" d="m267.12,84.21a2.125,2.125,0,1,1,-4.25,0,2.125,2.125,0,1,1,4.25,0z" transform="translate(-184.52,-76.084006) translate(-43.875,3.934)"/><path fill="#FFF" d="m267.12,84.21a2.125,2.125,0,1,1,-4.25,0,2.125,2.125,0,1,1,4.25,0z" transform="translate(-184.52,-76.084006) translate(-58.797,3.934)"/></g><metadata/></svg>